{
    "asset": {
        "version": "2.0",
        "generator": "Open Asset Import Library (assimp v5.2.cf7d3637)"
    },
    "extensionsUsed": [
        "KHR_materials_volume",
        "FB_ngon_encoding"
    ],
    "accessors": [
        {
            "bufferView": 0,
            "byteOffset": 0,
            "componentType": 5126,
            "count": 16509,
            "type": "VEC3",
            "max": [
                0.02259483002126217,
                0.13007216155529023,
                0.4502163529396057
            ],
            "min": [
                -0.037000950425863269,
                -0.13080301880836488,
                -0.3621695339679718
            ]
        },
        {
            "bufferView": 1,
            "byteOffset": 0,
            "componentType": 5126,
            "count": 16509,
            "type": "VEC3",
            "max": [
                1.0,
                1.0,
                1.0
            ],
            "min": [
                -1.0,
                -1.0,
                -1.0
            ]
        },
        {
            "bufferView": 2,
            "byteOffset": 0,
            "componentType": 5126,
            "count": 16509,
            "type": "VEC2",
            "max": [
                0.826587975025177,
                0.8593180179595947
            ],
            "min": [
                0.2290649712085724,
                0.24548345804214478
            ]
        },
        {
            "bufferView": 3,
            "byteOffset": 0,
            "componentType": 5125,
            "count": 16509,
            "type": "SCALAR",
            "max": [
                16508
            ],
            "min": [
                0
            ]
        },
        {
            "bufferView": 4,
            "byteOffset": 0,
            "componentType": 5123,
            "count": 16509,
            "type": "VEC4",
            "max": [
                10,
                0,
                0,
                0
            ],
            "min": [
                0,
                0,
                0,
                0
            ]
        },
        {
            "bufferView": 5,
            "byteOffset": 0,
            "componentType": 5126,
            "count": 16509,
            "type": "VEC4",
            "max": [
                1.0,
                0.0,
                0.0,
                0.0
            ],
            "min": [
                1.0,
                0.0,
                0.0,
                0.0
            ]
        },
        {
            "bufferView": 6,
            "byteOffset": 0,
            "componentType": 5126,
            "count": 11,
            "type": "MAT4",
            "max": [
                1.0,
                3.794892844410924e-9,
                2.3841860752327195e-7,
                -0.0,
                1.3316356728410029e-7,
                0.829485297203064,
                1.0,
                0.0,
                2.361039292964051e-7,
                1.0000001192092896,
                0.829485297203064,
                -0.0,
                0.005391374696046114,
                0.0986730083823204,
                0.1247575655579567,
                1.0
            ],
            "min": [
                -1.0,
                -2.5861993435682963e-8,
                -8.540300910908627e-8,
                -0.0,
                -8.540310858506928e-8,
                -1.0,
                -0.9999998211860657,
                0.0,
                -1.9776474857735594e-7,
                -1.0,
                -1.000000238418579,
                -0.0,
                -0.02793564833700657,
                -0.11147177964448929,
                -0.09162396192550659,
                1.0
            ]
        }
    ],
    "buffers": [
        {
            "byteLength": 1123316,
            "uri": "result.bin"
        }
    ],
    "bufferViews": [
        {
            "buffer": 0,
            "byteOffset": 0,
            "byteLength": 198108,
            "target": 34962
        },
        {
            "buffer": 0,
            "byteOffset": 198108,
            "byteLength": 198108,
            "target": 34962
        },
        {
            "buffer": 0,
            "byteOffset": 396216,
            "byteLength": 132072,
            "target": 34962
        },
        {
            "buffer": 0,
            "byteOffset": 528288,
            "byteLength": 66036,
            "target": 34963
        },
        {
            "buffer": 0,
            "byteOffset": 594324,
            "byteLength": 132072
        },
        {
            "buffer": 0,
            "byteOffset": 858468,
            "byteLength": 264144
        },
        {
            "buffer": 0,
            "byteOffset": 1122612,
            "byteLength": 704
        }
    ],
    "images": [
        {
            "name": "Weapon_texture_free",
            "uri": "data:image/png;base64,"
        },
        {
            "name": "Weapon_MetallicRoughness",
            "uri": "data:image/png;base64,"
        }
    ],
    "materials": [
        {
            "name": "Weapon",
            "pbrMetallicRoughness": {
                "baseColorTexture": {
                    "index": 0
                },
                "metallicRoughnessTexture": {
                    "index": 1
                }
            },
            "doubleSided": true
        },
        {
            "name": "material"
        }
    ],
    "meshes": [
        {
            "name": "Thompson",
            "primitives": [
                {
                    "mode": 4,
                    "material": 0,
                    "indices": 3,
                    "attributes": {
                        "POSITION": 0,
                        "NORMAL": 1,
                        "TEXCOORD_0": 2,
                        "JOINTS_0": 4,
                        "WEIGHTS_0": 5
                    }
                }
            ]
        }
    ],
    "nodes": [
        {
            "name": "Thompson_armature",
            "children": [
                1,
                2
            ]
        },
        {
            "name": "Thompson",
            "mesh": 0,
            "skin": 0
        },
        {
            "name": "Main",
            "matrix": [
                1.0,
                1.3316355307324557e-7,
                -1.9776476278821065e-7,
                0.0,
                0.0,
                0.8294854164123535,
                0.5585284233093262,
                0.0,
                2.3841863594498138e-7,
                -0.558528482913971,
                0.8294855356216431,
                0.0,
                5.169878828456423e-26,
                0.0,
                1.4901161193847657e-8,
                1.0
            ],
            "children": [
                3,
                8,
                9,
                10,
                11,
                12
            ]
        },
        {
            "name": "Magazine",
            "matrix": [
                1.0,
                -5.684341886080802e-14,
                2.3841860752327195e-7,
                0.0,
                -1.3316360991666444e-7,
                -0.8294854164123535,
                0.558528482913971,
                0.0,
                1.9776464910137293e-7,
                -0.5585283637046814,
                -0.829485297203064,
                0.0,
                -2.849118274639295e-8,
                0.041316088289022449,
                0.11950066685676575,
                1.0
            ],
            "children": [
                4,
                5,
                6,
                7
            ]
        },
        {
            "name": "Ammo1",
            "matrix": [
                1.0,
                -4.2640519479046626e-14,
                2.393376295761751e-17,
                0.0,
                0.0,
                -0.0005612373352050781,
                -0.9999998807907105,
                0.0,
                4.26405262553102e-14,
                0.9999998807907105,
                -0.0005612373352050781,
                0.0,
                -0.0029109790921211244,
                -0.11764343827962876,
                0.010776315815746785,
                1.0
            ]
        },
        {
            "name": "Ammo2",
            "matrix": [
                1.0,
                -4.264052286717841e-14,
                2.393376295761751e-17,
                0.0,
                0.0,
                -0.000561237393412739,
                -0.9999999403953552,
                0.0,
                4.264053641970557e-14,
                0.9999999403953552,
                -0.000561237393412739,
                0.0,
                0.005602888762950897,
                -0.11041805893182755,
                0.010776316747069359,
                1.0
            ]
        },
        {
            "name": "Mag_follower",
            "matrix": [
                1.0,
                -4.2632581086264959e-14,
                1.4210856409267899e-14,
                0.0,
                4.2632581086264959e-14,
                1.0,
                3.536624149091949e-8,
                0.0,
                -1.4210856409267899e-14,
                -3.536624149091949e-8,
                1.0,
                0.0,
                -8.511662139270172e-15,
                -0.09251796454191208,
                -0.002557249739766121,
                1.0
            ]
        },
        {
            "name": "Ammo3",
            "matrix": [
                1.0,
                -4.2640509314651259e-14,
                2.391004603509439e-17,
                0.0,
                -1.0164396982638738e-20,
                -0.0005608797655440867,
                -0.9999999403953552,
                0.0,
                4.264052286717841e-14,
                0.9999999403953552,
                -0.0005608797655440867,
                0.0,
                -0.005391374230384827,
                -0.10661759227514267,
                0.010776316747069359,
                1.0
            ]
        },
        {
            "name": "Trigger",
            "matrix": [
                1.0,
                1.5936080899336958e-7,
                4.157530497650441e-7,
                0.0,
                -1.59360936891062e-7,
                -0.7437946200370789,
                0.6684079766273499,
                0.0,
                4.157527655479498e-7,
                -0.668407678604126,
                -0.7437942624092102,
                0.0,
                -6.235124416775761e-9,
                0.07762443274259567,
                0.026152003556489946,
                1.0
            ]
        },
        {
            "name": "Selector",
            "matrix": [
                1.0,
                -9.275453294321779e-9,
                2.246434291919286e-7,
                0.0,
                1.8115781585947844e-7,
                -0.558528482913971,
                -0.8294853568077087,
                0.0,
                1.3316356728410029e-7,
                0.829485297203064,
                -0.558528482913971,
                0.0,
                0.016552837565541269,
                0.06686808168888092,
                0.00265712384134531,
                1.0
            ]
        },
        {
            "name": "Charging_handle",
            "matrix": [
                -1.0,
                -6.87210430783125e-8,
                -1.8757074826680765e-7,
                0.0,
                -1.939698819342084e-7,
                0.5585286021232605,
                0.8294855356216431,
                0.0,
                4.776050843702251e-8,
                0.8294853568077087,
                -0.5585285425186157,
                0.0,
                -0.027935661375522615,
                0.12445100396871567,
                0.020780164748430253,
                1.0
            ]
        },
        {
            "name": "Magazine_release",
            "matrix": [
                1.0,
                -4.871004932738288e-9,
                2.3368842505533395e-7,
                0.0,
                1.5930771724015359e-7,
                -0.7173981666564941,
                -0.6966633796691895,
                0.0,
                1.710410799660167e-7,
                0.6966633200645447,
                -0.7173981070518494,
                0.0,
                0.016223151236772538,
                0.09117582440376282,
                0.04774705320596695,
                1.0
            ]
        },
        {
            "name": "Safety",
            "matrix": [
                1.0,
                -1.444467301325858e-8,
                2.169664838902463e-7,
                0.0,
                1.7190276935252769e-7,
                -0.5585285425186157,
                -0.8294854164123535,
                0.0,
                1.33163581494955e-7,
                0.829485297203064,
                -0.558528482913971,
                0.0,
                0.015662502497434617,
                0.04697570949792862,
                -0.036011215299367908,
                1.0
            ]
        }
    ],
    "samplers": [
        {
            "magFilter": 9729,
            "minFilter": 9987
        }
    ],
    "scenes": [
        {
            "nodes": [
                0
            ]
        }
    ],
    "skins": [
        {
            "name": "skin",
            "joints": [
                2,
                3,
                4,
                5,
                6,
                7,
                8,
                9,
                10,
                11,
                12
            ],
            "inverseBindMatrices": 6
        }
    ],
    "textures": [
        {
            "source": 0,
            "sampler": 0
        },
        {
            "source": 1,
            "sampler": 0
        }
    ],
    "scene": 0
}